<svg xmlns="http://www.w3.org/2000/svg" width="190" height="60" viewBox="0 0 190 60" fill="none">
<path d="M23.6128 28.8332C23.452 28.9031 23.2982 28.9882 23.1535 29.0872L23.1069 29.1253C23.0887 29.137 23.0717 29.1505 23.0561 29.1656C19.9975 31.5447 18.3593 35.3801 19.2313 39.2239C19.7238 41.4282 20.961 43.3953 22.7346 44.7937C24.5082 46.1921 26.7096 46.9364 28.968 46.9011H29.313C30.7936 46.8377 32.2408 46.4404 33.5462 45.7389C34.8516 45.0374 35.9815 44.0497 36.8514 42.8499C37.7212 41.65 38.3085 40.269 38.5693 38.8102C38.8301 37.3513 38.7577 35.8524 38.3575 34.4255C37.9659 33.0221 37.151 31.7288 36.4376 30.4673C35.1846 28.2519 33.9287 26.0371 32.67 23.8231C32.2975 23.1691 31.9207 22.5192 31.5524 21.8652C31.0677 21.0016 30.3078 20.0618 30.2676 19.0373C30.2274 18.0129 31.0613 17.0244 32.0816 16.8275C34.0035 16.4614 34.9052 18.5442 34.9094 18.542C35.1427 19.0997 35.5789 19.548 36.13 19.7964C36.6811 20.0447 37.3059 20.0746 37.8782 19.88C38.4505 19.6854 38.9275 19.2808 39.2129 18.748C39.4984 18.2151 39.5709 17.5938 39.4158 17.0096C38.9452 15.4728 37.9621 14.1437 36.6303 13.244C35.4591 12.4064 34.0482 11.9705 32.6086 12.0016C31.6024 12.0071 30.6084 12.2223 29.6901 12.6334C28.7717 13.0444 27.949 13.6424 27.2746 14.3891C26.5082 15.2456 25.9591 16.2739 25.6736 17.3872C25.3881 18.5005 25.3746 19.6661 25.6342 20.7857C25.7379 21.2062 25.8796 21.6164 26.0575 22.0112C26.5634 23.1585 27.3064 24.2041 27.9329 25.2899C28.702 26.6234 29.471 27.9576 30.2401 29.2926C31.0091 30.6275 31.7852 31.968 32.5684 33.3142C33.2034 34.4276 33.8955 35.4012 33.9654 36.739C33.9948 37.4525 33.8762 38.1645 33.6171 38.83C33.358 39.4955 32.9639 40.1001 32.4597 40.6059C31.9555 41.1117 31.3521 41.5077 30.6874 41.7689C30.0227 42.0301 29.3112 42.1509 28.5975 42.1237C26.121 42.0116 24.252 40.1764 23.8753 37.7761C23.4033 34.7451 25.7633 33.0814 25.7633 33.0814C26.2607 32.7888 26.6351 32.3258 26.8172 31.7783C26.9993 31.2308 26.9768 30.6358 26.7539 30.1036C26.5309 29.5714 26.1226 29.1381 25.6046 28.8838C25.0866 28.6296 24.494 28.5718 23.9366 28.7211C23.83 28.7511 23.7254 28.7878 23.6234 28.8311" fill="black"/>
<path d="M49.0001 37.0916C49.0008 36.2363 48.93 35.3824 48.7885 34.5389C48.5683 33.2084 48.1554 31.9171 47.5629 30.7056C47.2073 29.9838 46.7586 29.2621 46.0558 28.8684C45.704 28.67 45.3065 28.5666 44.9026 28.5684C44.4987 28.5701 44.1022 28.6769 43.752 28.8782C43.4019 29.0796 43.1101 29.3686 42.9054 29.7168C42.7007 30.065 42.5901 30.4605 42.5845 30.8644C42.5655 31.7555 43.0481 32.5577 43.4079 33.379C44.006 34.7477 44.2769 36.2371 44.199 37.7288C44.1211 39.2205 43.6966 40.6736 42.9592 41.9726C42.9139 42.0497 42.8736 42.1296 42.8385 42.2118C42.6886 42.561 42.6102 42.9367 42.6078 43.3167C42.6235 43.8617 42.8263 44.3847 43.182 44.7979C43.5378 45.2111 44.0249 45.4893 44.5615 45.5857C45.8759 45.8207 46.9194 44.8343 47.4719 43.7337C48.4873 41.6673 49.0104 39.3939 49.0001 37.0916Z" fill="black"/>
<path d="M37.4265 21.4453C37.383 21.4536 37.3399 21.4642 37.2974 21.477C37.2108 21.5012 37.1328 21.5494 37.0725 21.616C37.0121 21.6827 36.9718 21.765 36.9563 21.8536C36.9408 21.9422 36.9507 22.0333 36.9849 22.1165C37.019 22.1997 37.076 22.2715 37.1492 22.3237C38.2259 23.1378 39.1339 24.1536 39.8226 25.3145C40.0097 25.6334 40.1725 25.9659 40.3094 26.3093C40.4237 26.6057 40.5761 26.993 40.9614 26.9719C41.2619 26.957 41.3847 26.7009 41.4672 26.4448C41.8599 25.113 41.9823 23.7161 41.8271 22.3364C41.7165 21.5846 41.5437 20.8434 41.3106 20.1202C41.2753 19.9451 41.1934 19.7828 41.0735 19.6503C40.9971 19.581 40.9003 19.5384 40.7977 19.5289C40.695 19.5194 40.592 19.5434 40.5041 19.5974C40.4209 19.6649 40.3494 19.7457 40.2925 19.8366C39.9397 20.3112 39.4865 20.7022 38.9653 20.9817C38.7025 21.1215 38.4258 21.2336 38.1398 21.3161C37.9007 21.386 37.6572 21.3966 37.4265 21.4453Z" fill="#C21E31"/>
<path d="M72.988 33.564C72.988 34.964 72.624 36.14 71.896 37.092C71.1867 38.0253 70.2533 38.716 69.096 39.164C67.9573 39.612 66.7347 39.836 65.428 39.836C63.524 39.836 61.8067 39.3973 60.276 38.52C58.7453 37.624 57.728 36.364 57.224 34.74L60.528 32.864C60.976 33.9093 61.6293 34.7213 62.488 35.3C63.3467 35.8787 64.3733 36.168 65.568 36.168C66.5387 36.168 67.304 35.972 67.864 35.58C68.4427 35.188 68.732 34.6187 68.732 33.872C68.732 33.2747 68.536 32.78 68.144 32.388C67.7707 31.996 67.2947 31.688 66.716 31.464C66.156 31.24 65.3813 30.9787 64.392 30.68C63.0667 30.288 61.984 29.9053 61.144 29.532C60.304 29.14 59.5853 28.5613 58.988 27.796C58.3907 27.0307 58.092 26.0227 58.092 24.772C58.092 23.4467 58.4373 22.3267 59.128 21.412C59.8373 20.4787 60.7613 19.788 61.9 19.34C63.0573 18.8733 64.2987 18.64 65.624 18.64C67.4347 18.64 68.984 19.0507 70.272 19.872C71.56 20.6933 72.3907 21.804 72.764 23.204L69.46 25.08C69.124 24.2027 68.62 23.5213 67.948 23.036C67.276 22.532 66.436 22.28 65.428 22.28C64.5133 22.28 63.7667 22.4947 63.188 22.924C62.628 23.3347 62.348 23.8853 62.348 24.576C62.348 25.0987 62.5253 25.5373 62.88 25.892C63.2347 26.228 63.6827 26.508 64.224 26.732C64.784 26.9373 65.5307 27.18 66.464 27.46C67.808 27.852 68.9187 28.2533 69.796 28.664C70.6733 29.056 71.42 29.6533 72.036 30.456C72.6707 31.24 72.988 32.276 72.988 33.564ZM86.2823 24.996L89.3063 34.04L92.1623 24.996H95.9423L90.6503 39.472H87.8783L84.5743 30.652L81.4103 39.472H78.6103L73.1223 24.996H77.1263L80.1783 34.152L83.0343 24.996H86.2823ZM102.687 24.632C104.647 24.632 106.178 25.192 107.279 26.312C108.381 27.4133 108.931 28.9907 108.931 31.044V39.5H105.655C105.637 39.3507 105.609 39.108 105.571 38.772C105.553 38.4173 105.515 38.1093 105.459 37.848C105.03 38.52 104.47 39.024 103.779 39.36C103.107 39.6773 102.286 39.836 101.315 39.836C100.307 39.836 99.3835 39.6587 98.5435 39.304C97.7221 38.9493 97.0688 38.436 96.5835 37.764C96.0981 37.0733 95.8555 36.2613 95.8555 35.328C95.8555 34.3573 96.1261 33.5173 96.6675 32.808C97.2275 32.08 97.9741 31.52 98.9075 31.128C99.8408 30.736 100.867 30.54 101.987 30.54C102.995 30.54 104.031 30.708 105.095 31.044C105.039 28.8973 104.125 27.824 102.351 27.824C100.933 27.824 99.8968 28.4587 99.2435 29.728L96.4715 28.132C96.9941 27.0493 97.7968 26.2 98.8795 25.584C99.9621 24.9493 101.231 24.632 102.687 24.632ZM105.095 33.62C104.162 33.396 103.35 33.284 102.659 33.284C101.745 33.284 101.035 33.452 100.531 33.788C100.027 34.1053 99.7755 34.5627 99.7755 35.16C99.7755 35.7013 99.9715 36.1213 100.363 36.42C100.774 36.7187 101.297 36.868 101.931 36.868C102.771 36.868 103.509 36.6347 104.143 36.168C104.778 35.6827 105.095 35.02 105.095 34.18V33.62ZM120.116 24.632C121.721 24.632 122.991 25.164 123.924 26.228C124.857 27.2733 125.324 28.804 125.324 30.82V39.5H121.432V32.08C121.432 29.4293 120.555 28.104 118.8 28.104C117.867 28.104 117.111 28.468 116.532 29.196C115.972 29.9053 115.692 30.9133 115.692 32.22V39.5H111.8V24.996H115.216C115.309 26.1347 115.393 26.9093 115.468 27.32C116.401 25.528 117.951 24.632 120.116 24.632ZM128.475 19.004H132.535V35.86H141.859V39.5H128.475V19.004ZM149.734 24.632C151.694 24.632 153.225 25.192 154.326 26.312C155.427 27.4133 155.978 28.9907 155.978 31.044V39.5H152.702C152.683 39.3507 152.655 39.108 152.618 38.772C152.599 38.4173 152.562 38.1093 152.506 37.848C152.077 38.52 151.517 39.024 150.826 39.36C150.154 39.6773 149.333 39.836 148.362 39.836C147.354 39.836 146.43 39.6587 145.59 39.304C144.769 38.9493 144.115 38.436 143.63 37.764C143.145 37.0733 142.902 36.2613 142.902 35.328C142.902 34.3573 143.173 33.5173 143.714 32.808C144.274 32.08 145.021 31.52 145.954 31.128C146.887 30.736 147.914 30.54 149.034 30.54C150.042 30.54 151.078 30.708 152.142 31.044C152.086 28.8973 151.171 27.824 149.398 27.824C147.979 27.824 146.943 28.4587 146.29 29.728L143.518 28.132C144.041 27.0493 144.843 26.2 145.926 25.584C147.009 24.9493 148.278 24.632 149.734 24.632ZM152.142 33.62C151.209 33.396 150.397 33.284 149.706 33.284C148.791 33.284 148.082 33.452 147.578 33.788C147.074 34.1053 146.822 34.5627 146.822 35.16C146.822 35.7013 147.018 36.1213 147.41 36.42C147.821 36.7187 148.343 36.868 148.978 36.868C149.818 36.868 150.555 36.6347 151.19 36.168C151.825 35.6827 152.142 35.02 152.142 34.18V33.62ZM167.135 24.632C168.311 24.632 169.393 24.9307 170.383 25.528C171.391 26.1253 172.184 27.0027 172.763 28.16C173.36 29.3173 173.659 30.68 173.659 32.248C173.659 33.816 173.36 35.1787 172.763 36.336C172.184 37.4747 171.391 38.3427 170.383 38.94C169.393 39.5373 168.311 39.836 167.135 39.836C166.164 39.836 165.268 39.6307 164.447 39.22C163.644 38.8093 162.991 38.1747 162.487 37.316C162.356 38.38 162.281 39.108 162.263 39.5H158.847V18.192H162.739V26.816C163.261 26.088 163.896 25.5467 164.643 25.192C165.408 24.8187 166.239 24.632 167.135 24.632ZM166.239 36.504C167.247 36.504 168.059 36.1213 168.675 35.356C169.309 34.5907 169.627 33.5547 169.627 32.248C169.627 30.9413 169.319 29.924 168.703 29.196C168.087 28.468 167.265 28.104 166.239 28.104C165.249 28.104 164.419 28.4493 163.747 29.14C163.075 29.812 162.739 30.848 162.739 32.248C162.739 33.648 163.075 34.712 163.747 35.44C164.437 36.1493 165.268 36.504 166.239 36.504Z" fill="black"/>
</svg>