<svg width="41" height="47" viewBox="0 0 41 47" fill="none" xmlns="http://www.w3.org/2000/svg">
<g clip-path="url(#clip0_67149_508)">
<path d="M6.20627 22.4992C5.99001 22.5926 5.78317 22.7064 5.58857 22.8387L5.5259 22.8896C5.50142 22.9053 5.47856 22.9233 5.45758 22.9435C1.34414 26.1234 -0.859043 31.2498 0.31369 36.3874C0.976042 39.3337 2.63992 41.9629 5.0252 43.832C7.41047 45.7011 10.3711 46.696 13.4084 46.6488H13.8723C15.8636 46.564 17.8099 46.033 19.5655 45.0954C21.3211 44.1578 22.8406 42.8376 24.0106 41.2339C25.1803 39.6302 25.9702 37.7843 26.3209 35.8345C26.6717 33.8845 26.5743 31.8811 26.0361 29.9739C25.5094 28.0981 24.4135 26.3695 23.454 24.6834C21.7689 21.7222 20.0799 18.7619 18.3871 15.8027C17.8861 14.9286 17.3794 14.0599 16.8841 13.1858C16.2322 12.0315 15.2102 10.7754 15.1562 9.406C15.1021 8.03679 16.2236 6.71556 17.5958 6.45238C20.1805 5.96305 21.3932 8.74692 21.3988 8.74398C21.7126 9.48941 22.2992 10.0886 23.0404 10.4206C23.7815 10.7525 24.6218 10.7925 25.3915 10.5324C26.1612 10.2723 26.8027 9.73146 27.1865 9.01932C27.5704 8.30705 27.668 7.47662 27.4594 6.69578C26.8265 4.64169 25.5043 2.86521 23.7132 1.66267C22.1381 0.543136 20.2406 -0.0394889 18.3045 0.00207942C16.9513 0.00943073 15.6145 0.297067 14.3795 0.846544C13.1444 1.39589 12.0379 2.19517 11.1309 3.19321C10.1002 4.33801 9.36175 5.71244 8.97779 7.20048C8.59383 8.68851 8.57567 10.2465 8.9248 11.7429C9.06427 12.305 9.25484 12.8532 9.49409 13.3809C10.1745 14.9144 11.1737 16.312 12.0163 17.7632C13.0506 19.5456 14.0848 21.3289 15.1192 23.1132C16.1534 24.8975 17.1971 26.6892 18.2505 28.4885C19.1045 29.9767 20.0352 31.278 20.1292 33.0661C20.1688 34.0198 20.0093 34.9714 19.6608 35.8609C19.3124 36.7505 18.7824 37.5586 18.1043 38.2346C17.4262 38.9107 16.6147 39.44 15.7207 39.7891C14.8268 40.1382 13.8699 40.2997 12.9101 40.2633C9.57949 40.1135 7.06591 37.6605 6.5593 34.4523C5.92452 30.4011 9.09843 28.1774 9.09843 28.1774C9.76737 27.7863 10.2709 27.1674 10.5158 26.4356C10.7607 25.7038 10.7304 24.9086 10.4307 24.1972C10.1308 23.4859 9.58164 22.9067 8.885 22.5668C8.18835 22.2271 7.39138 22.1498 6.64174 22.3494C6.49838 22.3895 6.3577 22.4385 6.22053 22.4964" fill="white"/>
<path d="M40.3491 33.5374C40.3501 32.3943 40.2548 31.2529 40.0645 30.1255C39.7684 28.3472 39.2131 26.6212 38.4163 25.0019C37.938 24.0372 37.3346 23.0725 36.3894 22.5463C35.9163 22.2811 35.3817 22.1429 34.8385 22.1453C34.2953 22.1476 33.762 22.2904 33.2911 22.5594C32.8202 22.8286 32.4278 23.2149 32.1525 23.6803C31.8772 24.1457 31.7285 24.6743 31.7209 25.2142C31.6954 26.4052 32.3444 27.4774 32.8283 28.5752C33.6327 30.4046 33.997 32.3953 33.8922 34.3891C33.7875 36.3829 33.2166 38.3252 32.2249 40.0614C32.1639 40.1645 32.1097 40.2712 32.0625 40.3811C31.8609 40.8479 31.7555 41.35 31.7523 41.8579C31.7734 42.5864 32.0461 43.2854 32.5245 43.8377C33.003 44.39 33.6581 44.7618 34.3797 44.8907C36.1475 45.2048 37.5508 43.8864 38.2939 42.4153C39.6595 39.6533 40.363 36.6147 40.3491 33.5374Z" fill="white"/>
<path d="M24.784 12.6244C24.7255 12.6355 24.6676 12.6497 24.6104 12.6668C24.4939 12.6992 24.389 12.7636 24.3079 12.8526C24.2267 12.9417 24.1725 13.0518 24.1517 13.1702C24.1308 13.2886 24.1441 13.4104 24.1901 13.5216C24.236 13.6328 24.3127 13.7287 24.4111 13.7985C25.8591 14.8866 27.0803 16.2444 28.0065 17.796C28.2581 18.2223 28.4771 18.6667 28.6612 19.1257C28.8149 19.5218 29.0199 20.0395 29.538 20.0113C29.9422 19.9914 30.1073 19.6491 30.2183 19.3068C30.7464 17.5267 30.911 15.6596 30.7023 13.8155C30.5536 12.8106 30.3212 11.8199 30.0077 10.8533C29.9602 10.6193 29.8501 10.4023 29.6888 10.2252C29.5861 10.1326 29.4559 10.0757 29.3179 10.063C29.1798 10.0503 29.0412 10.0824 28.923 10.1545C28.8111 10.2448 28.715 10.3528 28.6385 10.4742C28.164 11.1086 27.5545 11.6312 26.8535 12.0048C26.5001 12.1916 26.128 12.3415 25.7433 12.4517C25.4218 12.5452 25.0943 12.5593 24.784 12.6244Z" fill="#DD5B6A"/>
</g>
<defs>
<clipPath id="clip0_67149_508">
<rect width="41" height="47" fill="white"/>
</clipPath>
</defs>
</svg>
