<svg width="304" height="72" viewBox="0 0 304 72" fill="none" xmlns="http://www.w3.org/2000/svg">
<path d="M16.1399 35.044C15.891 35.1522 15.6531 35.2838 15.4292 35.437L15.3572 35.4959C15.329 35.514 15.3026 35.5349 15.2786 35.5582C10.5464 39.2391 8.01167 45.1731 9.36091 51.1203C10.1228 54.5306 12.0371 57.5741 14.7811 59.7377C17.5252 61.9013 20.9312 63.0528 24.4252 62.9981H24.959C27.2498 62.9002 29.4888 62.2855 31.5085 61.2001C33.5283 60.1147 35.2764 58.5866 36.6222 56.7303C37.9681 54.8739 38.8767 52.7372 39.2803 50.4801C39.6838 48.223 39.5717 45.9039 38.9525 43.6962C38.3466 41.5249 37.0858 39.524 35.9822 37.5722C34.0435 34.1445 32.1004 30.7179 30.1529 27.2924C29.5766 26.2805 28.9936 25.2751 28.4238 24.2632C27.6739 22.9271 26.4982 21.473 26.436 19.888C26.3737 18.303 27.664 16.7736 29.2425 16.4691C32.2161 15.9025 33.6112 19.125 33.6177 19.1217C33.9786 19.9845 34.6535 20.6781 35.5062 21.0624C36.3588 21.4466 37.3255 21.4929 38.2109 21.1918C39.0963 20.8907 39.8344 20.2647 40.276 19.4403C40.7176 18.6159 40.8298 17.6546 40.5899 16.7507C39.8618 14.373 38.3407 12.3168 36.2802 10.9247C34.4682 9.6287 32.2852 8.95428 30.058 9.00241C28.5012 9.01097 26.9633 9.34388 25.5424 9.97991C24.1215 10.6159 22.8488 11.5411 21.8053 12.6964C20.6196 14.0215 19.7699 15.6125 19.3282 17.3349C18.8865 19.0574 18.8656 20.8608 19.2673 22.593C19.4278 23.2436 19.6471 23.8782 19.9223 24.4892C20.705 26.2641 21.8545 27.8819 22.8238 29.5619C24.0137 31.6251 25.2035 33.6893 26.3934 35.7547C27.5833 37.82 28.7841 39.8941 29.9957 41.9769C30.9782 43.6994 32.0491 45.2059 32.1571 47.2756C32.2027 48.3796 32.0192 49.4811 31.6183 50.5107C31.2174 51.5404 30.6077 52.4759 29.8276 53.2585C29.0476 54.041 28.1139 54.6537 27.0856 55.0578C26.0572 55.4619 24.9563 55.6489 23.8521 55.6068C20.0205 55.4332 17.1289 52.5939 16.5459 48.8803C15.8156 44.1907 19.4671 41.6166 19.4671 41.6166C20.2365 41.1639 20.8158 40.4477 21.0976 39.6006C21.3794 38.7535 21.3446 37.8329 20.9997 37.0095C20.6547 36.1861 20.023 35.5156 19.2215 35.1223C18.4201 34.729 17.5033 34.6395 16.6409 34.8704C16.4759 34.9169 16.314 34.9738 16.1562 35.0407" fill="black"/>
<path d="M55.4151 47.8225C55.4162 46.4991 55.3066 45.178 55.0876 43.873C54.747 41.8145 54.1082 39.8166 53.1915 37.9422C52.6413 36.8255 51.947 35.7088 50.8598 35.0997C50.3153 34.7928 49.7005 34.6329 49.0755 34.6356C48.4506 34.6382 47.8371 34.8035 47.2953 35.115C46.7536 35.4265 46.3022 35.8736 45.9855 36.4123C45.6688 36.9511 45.4977 37.563 45.489 38.1878C45.4595 39.5666 46.2062 40.8077 46.7629 42.0784C47.6883 44.1961 48.1074 46.5004 47.9869 48.8084C47.8664 51.1163 47.2096 53.3644 46.0687 55.3743C45.9987 55.4936 45.9363 55.6171 45.882 55.7443C45.6501 56.2846 45.5287 56.8658 45.525 57.4538C45.5493 58.297 45.863 59.1062 46.4134 59.7455C46.9638 60.3848 47.7175 60.8152 48.5477 60.9644C50.5814 61.3279 52.1959 59.8019 53.0506 58.0989C54.6217 54.9019 55.431 51.3846 55.4151 47.8225Z" fill="black"/>
<path d="M37.4984 23.6115C37.431 23.6243 37.3643 23.6407 37.2986 23.6606C37.1646 23.698 37.044 23.7726 36.9506 23.8757C36.8572 23.9788 36.7949 24.1062 36.7709 24.2433C36.7469 24.3803 36.7622 24.5213 36.8151 24.65C36.8679 24.7787 36.956 24.8898 37.0694 24.9705C38.7351 26.2302 40.1399 27.8018 41.2055 29.5979C41.495 30.0912 41.7468 30.6058 41.9587 31.1371C42.1356 31.5956 42.3714 32.1949 42.9674 32.1621C43.4324 32.1392 43.6224 31.7429 43.7501 31.3467C44.3576 29.2862 44.5469 27.1249 44.3068 24.9902C44.1357 23.8271 43.8684 22.6803 43.5077 21.5614C43.4531 21.2905 43.3264 21.0393 43.1409 20.8344C43.0228 20.7272 42.873 20.6613 42.7141 20.6465C42.5553 20.6318 42.3959 20.669 42.26 20.7525C42.1312 20.857 42.0205 20.982 41.9325 21.1226C41.3867 21.8569 40.6856 22.4619 39.8792 22.8943C39.4725 23.1105 39.0445 23.2839 38.602 23.4117C38.2319 23.5198 37.8553 23.5362 37.4984 23.6115Z" fill="#BB4C51"/>
<path d="M96.88 53.336C94.544 53.336 92.432 52.936 90.544 52.136C88.688 51.336 87.216 50.184 86.128 48.68C85.04 47.176 84.48 45.4 84.448 43.352H91.648C91.744 44.728 92.224 45.816 93.088 46.616C93.984 47.416 95.2 47.816 96.736 47.816C98.304 47.816 99.536 47.448 100.432 46.712C101.328 45.944 101.776 44.952 101.776 43.736C101.776 42.744 101.472 41.928 100.864 41.288C100.256 40.648 99.488 40.152 98.56 39.8C97.664 39.416 96.416 39 94.816 38.552C92.64 37.912 90.864 37.288 89.488 36.68C88.144 36.04 86.976 35.096 85.984 33.848C85.024 32.568 84.544 30.872 84.544 28.76C84.544 26.776 85.04 25.048 86.032 23.576C87.024 22.104 88.416 20.984 90.208 20.216C92 19.416 94.048 19.016 96.352 19.016C99.808 19.016 102.608 19.864 104.752 21.56C106.928 23.224 108.128 25.56 108.352 28.568H100.96C100.896 27.416 100.4 26.472 99.472 25.736C98.576 24.968 97.376 24.584 95.872 24.584C94.56 24.584 93.504 24.92 92.704 25.592C91.936 26.264 91.552 27.24 91.552 28.52C91.552 29.416 91.84 30.168 92.416 30.776C93.024 31.352 93.76 31.832 94.624 32.216C95.52 32.568 96.768 32.984 98.368 33.464C100.544 34.104 102.32 34.744 103.696 35.384C105.072 36.024 106.256 36.984 107.248 38.264C108.24 39.544 108.736 41.224 108.736 43.304C108.736 45.096 108.272 46.76 107.344 48.296C106.416 49.832 105.056 51.064 103.264 51.992C101.472 52.888 99.344 53.336 96.88 53.336ZM151.426 26.408L143.65 53H136.402L131.554 34.424L126.706 53H119.41L111.586 26.408H118.402L123.106 46.664L128.194 26.408H135.298L140.29 46.616L144.994 26.408H151.426ZM202.329 26.024C205.497 26.024 208.057 27.032 210.009 29.048C211.961 31.032 212.937 33.816 212.937 37.4V53H206.217V38.312C206.217 36.2 205.689 34.584 204.633 33.464C203.577 32.312 202.137 31.736 200.313 31.736C198.457 31.736 196.985 32.312 195.897 33.464C194.841 34.584 194.313 36.2 194.313 38.312V53H187.593V26.408H194.313V29.72C195.209 28.568 196.345 27.672 197.721 27.032C199.129 26.36 200.665 26.024 202.329 26.024ZM226.048 47.672H237.088V53H219.328V19.496H226.048V47.672ZM239.631 39.608C239.631 36.92 240.159 34.536 241.215 32.456C242.303 30.376 243.759 28.776 245.583 27.656C247.439 26.536 249.503 25.976 251.775 25.976C253.759 25.976 255.487 26.376 256.959 27.176C258.463 27.976 259.663 28.984 260.559 30.2V26.408H267.327V53H260.559V49.112C259.695 50.36 258.495 51.4 256.959 52.232C255.455 53.032 253.711 53.432 251.727 53.432C249.487 53.432 247.439 52.856 245.583 51.704C243.759 50.552 242.303 48.936 241.215 46.856C240.159 44.744 239.631 42.328 239.631 39.608ZM260.559 39.704C260.559 38.072 260.239 36.68 259.599 35.528C258.959 34.344 258.095 33.448 257.007 32.84C255.919 32.2 254.751 31.88 253.503 31.88C252.255 31.88 251.103 32.184 250.047 32.792C248.991 33.4 248.127 34.296 247.455 35.48C246.815 36.632 246.495 38.008 246.495 39.608C246.495 41.208 246.815 42.616 247.455 43.832C248.127 45.016 248.991 45.928 250.047 46.568C251.135 47.208 252.287 47.528 253.503 47.528C254.751 47.528 255.919 47.224 257.007 46.616C258.095 45.976 258.959 45.08 259.599 43.928C260.239 42.744 260.559 41.336 260.559 39.704ZM280.61 30.296C281.474 29.016 282.658 27.976 284.162 27.176C285.698 26.376 287.442 25.976 289.394 25.976C291.666 25.976 293.714 26.536 295.538 27.656C297.394 28.776 298.85 30.376 299.906 32.456C300.994 34.504 301.538 36.888 301.538 39.608C301.538 42.328 300.994 44.744 299.906 46.856C298.85 48.936 297.394 50.552 295.538 51.704C293.714 52.856 291.666 53.432 289.394 53.432C287.41 53.432 285.666 53.048 284.162 52.28C282.69 51.48 281.506 50.456 280.61 49.208V53H273.89V17.48H280.61V30.296ZM294.674 39.608C294.674 38.008 294.338 36.632 293.666 35.48C293.026 34.296 292.162 33.4 291.074 32.792C290.018 32.184 288.866 31.88 287.618 31.88C286.402 31.88 285.25 32.2 284.162 32.84C283.106 33.448 282.242 34.344 281.57 35.528C280.93 36.712 280.61 38.104 280.61 39.704C280.61 41.304 280.93 42.696 281.57 43.88C282.242 45.064 283.106 45.976 284.162 46.616C285.25 47.224 286.402 47.528 287.618 47.528C288.866 47.528 290.018 47.208 291.074 46.568C292.162 45.928 293.026 45.016 293.666 43.832C294.338 42.648 294.674 41.24 294.674 39.608Z" fill="black"/>
<path d="M153.334 39.608C153.334 36.92 153.862 34.536 154.918 32.456C156.006 30.376 157.462 28.776 159.286 27.656C161.142 26.536 163.206 25.976 165.478 25.976C167.462 25.976 169.19 26.376 170.662 27.176C172.166 27.976 173.366 28.984 174.262 30.2V26.408H181.03V53H174.262V49.112C173.398 50.36 172.198 51.4 170.662 52.232C169.158 53.032 167.414 53.432 165.43 53.432C163.19 53.432 161.142 52.856 159.286 51.704C157.462 50.552 156.006 48.936 154.918 46.856C153.862 44.744 153.334 42.328 153.334 39.608ZM174.262 39.704C174.262 38.072 173.942 36.68 173.302 35.528C172.662 34.344 171.798 33.448 170.71 32.84C169.622 32.2 168.454 31.88 167.206 31.88C165.958 31.88 164.806 32.184 163.75 32.792C162.694 33.4 161.83 34.296 161.158 35.48C160.518 36.632 160.198 38.008 160.198 39.608C160.198 41.208 160.518 42.616 161.158 43.832C161.83 45.016 162.694 45.928 163.75 46.568C164.838 47.208 165.99 47.528 167.206 47.528C168.454 47.528 169.622 47.224 170.71 46.616C171.798 45.976 172.662 45.08 173.302 43.928C173.942 42.744 174.262 41.336 174.262 39.704Z" fill="black"/>
</svg>
