<svg width="340" height="340" viewBox="0 0 340 340" fill="none" xmlns="http://www.w3.org/2000/svg">
<rect x="2" y="2" width="336" height="336" rx="38" fill="white"/>
<rect x="2" y="2" width="336" height="336" rx="38" stroke="#D1D7DD" stroke-width="4"/>
<path d="M137.113 166.305C136.604 166.527 136.117 166.796 135.659 167.11L135.511 167.23C135.454 167.267 135.4 167.31 135.351 167.358C125.665 174.891 120.477 187.037 123.239 199.209C124.798 206.189 128.716 212.418 134.332 216.847C139.949 221.275 146.92 223.632 154.071 223.52H155.164C159.853 223.319 164.435 222.061 168.569 219.84C172.703 217.618 176.281 214.491 179.035 210.691C181.79 206.892 183.65 202.519 184.476 197.899C185.302 193.279 185.072 188.533 183.805 184.014C182.565 179.57 179.984 175.475 177.725 171.48C173.757 164.464 169.78 157.451 165.794 150.44C164.615 148.369 163.422 146.311 162.255 144.24C160.72 141.505 158.314 138.529 158.187 135.285C158.059 132.041 160.7 128.911 163.931 128.287C170.017 127.128 172.873 133.723 172.886 133.716C173.625 135.482 175.006 136.902 176.751 137.688C178.496 138.475 180.475 138.57 182.287 137.953C184.099 137.337 185.61 136.056 186.514 134.369C187.418 132.681 187.647 130.714 187.156 128.864C185.666 123.997 182.553 119.789 178.335 116.939C174.627 114.287 170.159 112.906 165.6 113.005C162.414 113.022 159.266 113.704 156.358 115.006C153.45 116.307 150.845 118.201 148.709 120.566C146.282 123.278 144.543 126.534 143.639 130.059C142.735 133.585 142.692 137.276 143.515 140.821C143.843 142.153 144.292 143.452 144.855 144.702C146.457 148.335 148.81 151.646 150.794 155.085C153.229 159.308 155.664 163.533 158.1 167.76C160.535 171.987 162.993 176.232 165.473 180.495C167.484 184.021 169.675 187.104 169.897 191.34C169.99 193.6 169.614 195.854 168.794 197.962C167.973 200.069 166.725 201.984 165.129 203.585C163.532 205.187 161.621 206.441 159.516 207.268C157.412 208.095 155.158 208.478 152.898 208.392C145.056 208.037 139.138 202.225 137.945 194.624C136.45 185.026 143.923 179.758 143.923 179.758C145.498 178.831 146.684 177.365 147.261 175.631C147.837 173.898 147.766 172.013 147.06 170.328C146.354 168.643 145.061 167.271 143.421 166.466C141.78 165.661 139.904 165.477 138.139 165.95C137.801 166.045 137.47 166.161 137.147 166.299" fill="black"/>
<path d="M217.499 192.459C217.502 189.75 217.277 187.047 216.829 184.375C216.132 180.162 214.825 176.073 212.948 172.237C211.822 169.951 210.401 167.665 208.176 166.419C207.062 165.791 205.803 165.463 204.524 165.469C203.245 165.474 201.989 165.812 200.88 166.45C199.772 167.088 198.848 168.003 198.2 169.105C197.551 170.208 197.201 171.46 197.183 172.739C197.123 175.561 198.651 178.102 199.791 180.702C201.685 185.037 202.542 189.753 202.296 194.477C202.049 199.201 200.705 203.802 198.37 207.916C198.227 208.16 198.099 208.413 197.988 208.673C197.513 209.779 197.265 210.968 197.257 212.172C197.307 213.898 197.949 215.554 199.075 216.862C200.202 218.171 201.744 219.052 203.444 219.357C207.606 220.101 210.911 216.978 212.66 213.492C215.875 206.949 217.532 199.75 217.499 192.459Z" fill="black"/>
<path d="M180.829 142.906C180.691 142.932 180.554 142.966 180.42 143.007C180.146 143.083 179.899 143.236 179.708 143.447C179.517 143.658 179.389 143.919 179.34 144.199C179.291 144.48 179.322 144.768 179.43 145.032C179.538 145.295 179.719 145.522 179.951 145.688C183.36 148.266 186.235 151.483 188.416 155.159C189.009 156.168 189.524 157.221 189.958 158.309C190.32 159.247 190.803 160.474 192.022 160.407C192.974 160.36 193.363 159.549 193.624 158.738C194.868 154.521 195.255 150.097 194.764 145.728C194.414 143.347 193.867 141 193.128 138.71C193.017 138.156 192.757 137.641 192.378 137.222C192.136 137.003 191.829 136.868 191.504 136.838C191.179 136.807 190.853 136.883 190.575 137.054C190.311 137.268 190.084 137.524 189.904 137.812C188.787 139.315 187.352 140.553 185.702 141.438C184.869 141.881 183.993 142.236 183.088 142.497C182.33 142.718 181.559 142.752 180.829 142.906Z" fill="#BB4C51"/>
</svg>
