<svg width="41" height="47" viewBox="0 0 41 47" fill="none" xmlns="http://www.w3.org/2000/svg">
<path d="M6.20627 22.4992C5.99001 22.5926 5.78317 22.7064 5.58857 22.8387L5.5259 22.8896C5.50142 22.9053 5.47856 22.9233 5.45758 22.9435C1.34414 26.1234 -0.859042 31.2498 0.313691 36.3874C0.976043 39.3337 2.63992 41.9629 5.0252 43.832C7.41047 45.7011 10.3711 46.696 13.4084 46.6488H13.8723C15.8636 46.564 17.8099 46.033 19.5655 45.0954C21.3211 44.1578 22.8406 42.8376 24.0106 41.2339C25.1803 39.6302 25.9702 37.7843 26.3209 35.8345C26.6717 33.8845 26.5743 31.8811 26.0361 29.9739C25.5094 28.0981 24.4135 26.3695 23.454 24.6834C21.7689 21.7222 20.0799 18.7619 18.3871 15.8027C17.8861 14.9286 17.3794 14.0599 16.8841 13.1858C16.2322 12.0315 15.2102 10.7754 15.1562 9.406C15.1021 8.03679 16.2236 6.71556 17.5958 6.45238C20.1805 5.96305 21.3932 8.74692 21.3988 8.74398C21.7126 9.48941 22.2992 10.0886 23.0404 10.4206C23.7815 10.7525 24.6218 10.7925 25.3915 10.5324C26.1612 10.2723 26.8027 9.73146 27.1865 9.01932C27.5704 8.30705 27.668 7.47662 27.4594 6.69578C26.8265 4.64169 25.5043 2.86521 23.7132 1.66267C22.1381 0.543136 20.2406 -0.0394889 18.3045 0.00207942C16.9513 0.00943073 15.6145 0.297067 14.3795 0.846544C13.1444 1.39589 12.0379 2.19517 11.1309 3.19321C10.1002 4.33801 9.36175 5.71244 8.97779 7.20048C8.59383 8.68851 8.57567 10.2465 8.9248 11.7429C9.06427 12.305 9.25484 12.8532 9.49409 13.3809C10.1745 14.9144 11.1737 16.312 12.0163 17.7632C13.0506 19.5456 14.0848 21.3289 15.1192 23.1132C16.1534 24.8975 17.1971 26.6892 18.2505 28.4885C19.1045 29.9767 20.0352 31.278 20.1292 33.0661C20.1688 34.0198 20.0093 34.9714 19.6608 35.8609C19.3124 36.7505 18.7824 37.5586 18.1043 38.2346C17.4262 38.9107 16.6147 39.44 15.7207 39.7891C14.8268 40.1382 13.8699 40.2997 12.9101 40.2633C9.57949 40.1135 7.06591 37.6605 6.5593 34.4523C5.92452 30.4011 9.09843 28.1774 9.09843 28.1774C9.76737 27.7863 10.2709 27.1674 10.5158 26.4356C10.7607 25.7038 10.7304 24.9086 10.4307 24.1972C10.1308 23.4859 9.58164 22.9067 8.885 22.5668C8.18835 22.2271 7.39138 22.1498 6.64174 22.3494C6.49838 22.3895 6.3577 22.4385 6.22053 22.4964" fill="black"/>
<path d="M40.349 33.5373C40.35 32.3942 40.2547 31.2528 40.0644 30.1254C39.7683 28.3471 39.213 26.6211 38.4162 25.0018C37.9379 24.0371 37.3345 23.0724 36.3893 22.5462C35.9162 22.281 35.3816 22.1428 34.8384 22.1452C34.2952 22.1475 33.7619 22.2903 33.291 22.5593C32.8201 22.8285 32.4277 23.2148 32.1524 23.6802C31.8771 24.1456 31.7284 24.6742 31.7208 25.2141C31.6953 26.4051 32.3443 27.4773 32.8282 28.5751C33.6326 30.4045 33.9969 32.3952 33.8921 34.389C33.7874 36.3828 33.2165 38.3251 32.2248 40.0613C32.1638 40.1644 32.1096 40.2711 32.0624 40.381C31.8608 40.8478 31.7554 41.3499 31.7522 41.8578C31.7733 42.5863 32.046 43.2853 32.5244 43.8376C33.0029 44.3899 33.658 44.7617 34.3796 44.8906C36.1474 45.2047 37.5507 43.8863 38.2938 42.4152C39.6594 39.6532 40.3629 36.6146 40.349 33.5373Z" fill="black"/>
<path d="M24.784 12.6245C24.7255 12.6356 24.6676 12.6498 24.6104 12.6669C24.4939 12.6993 24.389 12.7637 24.3079 12.8527C24.2267 12.9418 24.1725 13.0519 24.1517 13.1703C24.1308 13.2887 24.1441 13.4105 24.1901 13.5217C24.236 13.6329 24.3127 13.7288 24.4111 13.7986C25.8591 14.8867 27.0803 16.2445 28.0065 17.7961C28.2581 18.2224 28.4771 18.6668 28.6612 19.1258C28.8149 19.5219 29.0199 20.0396 29.538 20.0114C29.9422 19.9915 30.1073 19.6492 30.2183 19.3069C30.7464 17.5268 30.911 15.6597 30.7023 13.8156C30.5536 12.8107 30.3212 11.82 30.0077 10.8534C29.9602 10.6194 29.8501 10.4024 29.6888 10.2253C29.5861 10.1327 29.4559 10.0758 29.3179 10.0631C29.1798 10.0504 29.0412 10.0825 28.923 10.1546C28.8111 10.2449 28.715 10.3529 28.6385 10.4743C28.164 11.1087 27.5545 11.6313 26.8535 12.0049C26.5001 12.1917 26.128 12.3416 25.7433 12.4518C25.4218 12.5453 25.0943 12.5594 24.784 12.6245Z" fill="#C21E31"/>
</svg>
