<svg width="439" height="150" viewBox="0 0 439 150" fill="none" xmlns="http://www.w3.org/2000/svg">
<path d="M126.73 73.2884L137.53 105.588L147.73 73.2884H161.23L142.33 124.988H132.43L120.63 93.4884L109.33 124.988H99.3303L79.7303 73.2884H94.0303L104.93 105.988L115.13 73.2884H126.73ZM184.32 71.9884C191.32 71.9884 196.787 73.9884 200.72 77.9884C204.654 81.9217 206.62 87.555 206.62 94.8884V125.088H194.92C194.854 124.555 194.754 123.688 194.62 122.488C194.554 121.222 194.42 120.122 194.22 119.188C192.687 121.588 190.687 123.388 188.22 124.588C185.82 125.722 182.887 126.288 179.42 126.288C175.82 126.288 172.52 125.655 169.52 124.388C166.587 123.122 164.253 121.288 162.52 118.888C160.787 116.422 159.92 113.522 159.92 110.188C159.92 106.722 160.887 103.722 162.82 101.188C164.82 98.5884 167.487 96.5884 170.82 95.1884C174.154 93.7884 177.82 93.0884 181.82 93.0884C185.42 93.0884 189.12 93.6884 192.92 94.8884C192.72 87.2217 189.454 83.3884 183.12 83.3884C178.054 83.3884 174.354 85.655 172.02 90.1884L162.12 84.4884C163.987 80.6217 166.853 77.5884 170.72 75.3884C174.587 73.1217 179.12 71.9884 184.32 71.9884ZM192.92 104.088C189.587 103.288 186.687 102.888 184.22 102.888C180.954 102.888 178.42 103.488 176.62 104.688C174.82 105.822 173.92 107.455 173.92 109.588C173.92 111.522 174.62 113.022 176.02 114.088C177.487 115.155 179.353 115.688 181.62 115.688C184.62 115.688 187.254 114.855 189.52 113.188C191.787 111.455 192.92 109.088 192.92 106.088V104.088ZM245.565 71.9884C251.299 71.9884 255.832 73.8884 259.165 77.6884C262.499 81.4217 264.165 86.8884 264.165 94.0884V125.088H250.265V98.5884C250.265 89.1217 247.132 84.3884 240.865 84.3884C237.532 84.3884 234.832 85.6884 232.765 88.2884C230.765 90.8217 229.765 94.4217 229.765 99.0884V125.088H215.865V73.2884H228.065C228.399 77.355 228.699 80.1217 228.965 81.5884C232.299 75.1884 237.832 71.9884 245.565 71.9884ZM274.417 51.8884H288.917V112.088H322.217V125.088H274.417V51.8884ZM349.344 71.9884C356.344 71.9884 361.81 73.9884 365.744 77.9884C369.677 81.9217 371.644 87.555 371.644 94.8884V125.088H359.944C359.877 124.555 359.777 123.688 359.644 122.488C359.577 121.222 359.444 120.122 359.244 119.188C357.71 121.588 355.71 123.388 353.244 124.588C350.844 125.722 347.91 126.288 344.444 126.288C340.844 126.288 337.544 125.655 334.544 124.388C331.61 123.122 329.277 121.288 327.544 118.888C325.81 116.422 324.944 113.522 324.944 110.188C324.944 106.722 325.91 103.722 327.844 101.188C329.844 98.5884 332.51 96.5884 335.844 95.1884C339.177 93.7884 342.844 93.0884 346.844 93.0884C350.444 93.0884 354.144 93.6884 357.944 94.8884C357.744 87.2217 354.477 83.3884 348.144 83.3884C343.077 83.3884 339.377 85.655 337.044 90.1884L327.144 84.4884C329.01 80.6217 331.877 77.5884 335.744 75.3884C339.61 73.1217 344.144 71.9884 349.344 71.9884ZM357.944 104.088C354.61 103.288 351.71 102.888 349.244 102.888C345.977 102.888 343.444 103.488 341.644 104.688C339.844 105.822 338.944 107.455 338.944 109.588C338.944 111.522 339.644 113.022 341.044 114.088C342.51 115.155 344.377 115.688 346.644 115.688C349.644 115.688 352.277 114.855 354.544 113.188C356.81 111.455 357.944 109.088 357.944 106.088V104.088ZM410.489 71.9884C414.689 71.9884 418.556 73.055 422.089 75.1884C425.689 77.3217 428.522 80.455 430.589 84.5884C432.722 88.7217 433.789 93.5884 433.789 99.1884C433.789 104.788 432.722 109.655 430.589 113.788C428.522 117.855 425.689 120.955 422.089 123.088C418.556 125.222 414.689 126.288 410.489 126.288C407.022 126.288 403.822 125.555 400.889 124.088C398.022 122.622 395.689 120.355 393.889 117.288C393.422 121.088 393.156 123.688 393.089 125.088H380.889V48.9884H394.789V79.7884C396.656 77.1884 398.922 75.255 401.589 73.9884C404.322 72.655 407.289 71.9884 410.489 71.9884ZM407.289 114.388C410.889 114.388 413.789 113.022 415.989 110.288C418.256 107.555 419.389 103.855 419.389 99.1884C419.389 94.5217 418.289 90.8884 416.089 88.2884C413.889 85.6884 410.956 84.3884 407.289 84.3884C403.756 84.3884 400.789 85.6217 398.389 88.0884C395.989 90.4884 394.789 94.1884 394.789 99.1884C394.789 104.188 395.989 107.988 398.389 110.588C400.856 113.122 403.822 114.388 407.289 114.388Z" fill="black"/>
<path d="M22.7292 66.6961C22.1825 67.0049 21.6664 67.3649 21.188 67.7712L21.0363 67.9241C20.9758 67.9726 20.9203 68.0268 20.8704 68.0862C10.8646 77.6908 6.46225 91.9419 11.0052 105.283C13.583 112.937 18.7255 119.468 25.5658 123.776C32.4061 128.085 40.526 129.907 48.5571 128.936L49.7861 128.807C55.0366 128.027 60.043 126.073 64.4308 123.089C68.8187 120.106 72.4744 116.171 75.1245 111.579C77.7746 106.987 79.3505 101.857 79.7344 96.572C80.1182 91.287 79.3 85.9843 77.341 81.0604C75.4217 76.217 72.0355 71.9235 69.0232 67.7049C63.7317 60.2965 58.4304 52.8917 53.1193 45.4904C51.5479 43.3042 49.963 41.1347 48.4066 38.947C46.3573 36.0577 43.2993 33.0005 42.7731 29.3729C42.247 25.7452 44.8483 21.9182 48.4088 20.8363C55.1181 18.8146 59.1084 25.883 59.1227 25.8738C60.162 27.7694 61.8835 29.2001 63.9393 29.8769C65.9951 30.5537 68.232 30.4261 70.1977 29.5199C72.1635 28.6136 73.7116 26.9963 74.5292 24.9949C75.3468 22.9934 75.3728 20.757 74.6021 18.7376C72.3515 13.4494 68.3528 9.09174 63.2726 6.39122C58.7877 3.8511 53.5989 2.82938 48.4827 3.47895C44.9007 3.87534 41.4404 5.01258 38.3226 6.81814C35.2049 8.62371 32.4981 11.058 30.3748 13.9656C27.9649 17.2979 26.3931 21.1598 25.7921 25.2253C25.1912 29.2907 25.5788 33.4405 26.9221 37.3243C27.4487 38.7806 28.1068 40.1861 28.888 41.5235C31.1188 45.4134 34.156 48.8532 36.7936 52.4797C40.0314 56.9333 43.2695 61.3895 46.5078 65.8481C49.7461 70.3068 53.0117 74.7829 56.3045 79.2764C58.9825 82.9975 61.8119 86.2005 62.5606 90.931C62.9322 93.4572 62.7758 96.0331 62.1016 98.4965C61.4273 100.96 60.2496 103.257 58.6426 105.245C57.0356 107.232 55.0341 108.866 52.764 110.043C50.494 111.221 48.0045 111.917 45.4523 112.088C36.5888 112.616 29.2454 106.79 27.0063 98.3965C24.1921 87.7955 31.9772 80.9963 31.9772 80.9963C33.6394 79.7697 34.8 77.9834 35.2442 75.9684C35.6883 73.9533 35.3859 71.8462 34.3928 70.0373C33.3997 68.2284 31.7833 66.8403 29.8431 66.1304C27.9029 65.4204 25.7705 65.4366 23.8408 66.176C23.4721 66.3226 23.1132 66.4925 22.7661 66.6846" fill="black"/>
<path d="M69.1508 35.2557C68.9987 35.3016 68.8492 35.3554 68.7028 35.4169C68.4033 35.5353 68.1435 35.7359 67.9534 35.9955C67.7633 36.255 67.6507 36.563 67.6286 36.8837C67.6065 37.2045 67.6758 37.5249 67.8285 37.8079C67.9811 38.0908 68.211 38.3249 68.4914 38.4829C72.6307 40.9748 76.2446 44.2468 79.1318 48.1167C79.9176 49.1804 80.6216 50.302 81.2378 51.4718C81.7556 52.4827 82.4433 53.8029 83.8076 53.5835C84.8727 53.4182 85.2143 52.4616 85.4126 51.52C86.3137 46.6375 86.2274 41.6247 85.1589 36.7767C84.484 34.1452 83.5917 31.5742 82.491 29.09C82.2998 28.4806 81.9474 27.934 81.471 27.508C81.173 27.2902 80.8122 27.175 80.4429 27.1795C80.0736 27.184 79.7157 27.308 79.423 27.533C79.1516 27.8042 78.927 28.1183 78.7584 28.4627C77.6791 30.2825 76.2111 31.8424 74.459 33.0313C73.575 33.6267 72.6314 34.1288 71.6434 34.5295C70.8176 34.8674 69.9544 34.9962 69.1508 35.2557Z" fill="#C60000"/>
</svg>
