<svg width="267" height="64" viewBox="0 0 267 64" fill="none" xmlns="http://www.w3.org/2000/svg">
<path d="M16.1399 31.044C15.891 31.1522 15.6531 31.2838 15.4292 31.437L15.3572 31.4959C15.329 31.514 15.3026 31.5349 15.2786 31.5582C10.5464 35.2391 8.01167 41.1731 9.36091 47.1203C10.1228 50.5306 12.0371 53.5741 14.7811 55.7377C17.5252 57.9013 20.9312 59.0528 24.4252 58.9981H24.959C27.2498 58.9002 29.4888 58.2855 31.5085 57.2001C33.5283 56.1147 35.2764 54.5866 36.6222 52.7303C37.9681 50.8739 38.8767 48.7372 39.2803 46.4801C39.6838 44.223 39.5717 41.9039 38.9525 39.6962C38.3466 37.5249 37.0858 35.524 35.9822 33.5722C34.0435 30.1445 32.1004 26.7179 30.1529 23.2924C29.5766 22.2805 28.9936 21.2751 28.4238 20.2632C27.6739 18.9271 26.4982 17.473 26.436 15.888C26.3737 14.303 27.664 12.7736 29.2425 12.4691C32.2161 11.9025 33.6112 15.125 33.6177 15.1217C33.9786 15.9845 34.6535 16.6781 35.5062 17.0624C36.3588 17.4466 37.3255 17.4929 38.2109 17.1918C39.0963 16.8907 39.8344 16.2647 40.276 15.4403C40.7176 14.6159 40.8298 13.6546 40.5899 12.7507C39.8618 10.373 38.3407 8.31675 36.2802 6.92474C34.4682 5.6287 32.2852 4.95428 30.058 5.00241C28.5012 5.01097 26.9633 5.34388 25.5424 5.97991C24.1215 6.61594 22.8488 7.54112 21.8053 8.69644C20.6196 10.0215 19.7699 11.6125 19.3282 13.3349C18.8865 15.0574 18.8656 16.8608 19.2673 18.593C19.4278 19.2436 19.6471 19.8782 19.9223 20.4892C20.705 22.2641 21.8545 23.8819 22.8238 25.5619C24.0137 27.6251 25.2035 29.6893 26.3934 31.7547C27.5833 33.82 28.7841 35.8941 29.9957 37.9769C30.9782 39.6994 32.0491 41.2059 32.1571 43.2756C32.2027 44.3796 32.0192 45.4811 31.6183 46.5107C31.2174 47.5404 30.6077 48.4759 29.8276 49.2585C29.0476 50.041 28.1139 50.6537 27.0856 51.0578C26.0572 51.4619 24.9563 51.6489 23.8521 51.6068C20.0205 51.4332 17.1289 48.5939 16.5459 44.8803C15.8156 40.1907 19.4671 37.6166 19.4671 37.6166C20.2365 37.1639 20.8158 36.4477 21.0976 35.6006C21.3794 34.7535 21.3446 33.8329 20.9997 33.0095C20.6547 32.1861 20.023 31.5156 19.2215 31.1223C18.4201 30.729 17.5033 30.6395 16.6409 30.8704C16.4759 30.9169 16.314 30.9738 16.1562 31.0407" fill="black"/>
<path d="M55.4151 43.8225C55.4162 42.4991 55.3066 41.178 55.0876 39.873C54.747 37.8145 54.1082 35.8166 53.1915 33.9422C52.6413 32.8255 51.947 31.7088 50.8598 31.0997C50.3153 30.7928 49.7005 30.6329 49.0755 30.6356C48.4506 30.6382 47.8371 30.8035 47.2953 31.115C46.7536 31.4265 46.3022 31.8736 45.9855 32.4123C45.6688 32.9511 45.4977 33.563 45.489 34.1878C45.4595 35.5666 46.2062 36.8077 46.7629 38.0784C47.6883 40.1961 48.1074 42.5004 47.9869 44.8084C47.8664 47.1163 47.2096 49.3644 46.0687 51.3743C45.9987 51.4936 45.9363 51.6171 45.882 51.7443C45.6501 52.2846 45.5287 52.8658 45.525 53.4538C45.5493 54.297 45.863 55.1062 46.4134 55.7455C46.9638 56.3848 47.7175 56.8152 48.5477 56.9644C50.5814 57.3279 52.1959 55.8019 53.0506 54.0989C54.6217 50.9019 55.431 47.3846 55.4151 43.8225Z" fill="black"/>
<path d="M37.4984 19.6115C37.431 19.6243 37.3643 19.6407 37.2986 19.6606C37.1646 19.698 37.044 19.7726 36.9506 19.8757C36.8572 19.9788 36.7949 20.1062 36.7709 20.2433C36.7469 20.3803 36.7622 20.5213 36.8151 20.65C36.8679 20.7787 36.956 20.8898 37.0694 20.9705C38.7351 22.2302 40.1399 23.8018 41.2055 25.5979C41.495 26.0912 41.7468 26.6058 41.9587 27.1371C42.1356 27.5956 42.3714 28.1949 42.9674 28.1621C43.4324 28.1392 43.6224 27.7429 43.7501 27.3467C44.3576 25.2862 44.5469 23.1249 44.3068 20.9902C44.1357 19.8271 43.8684 18.6803 43.5077 17.5614C43.4531 17.2905 43.3264 17.0393 43.1409 16.8344C43.0228 16.7272 42.873 16.6613 42.7141 16.6465C42.5553 16.6318 42.3959 16.669 42.26 16.7525C42.1312 16.857 42.0205 16.982 41.9325 17.1226C41.3867 17.8569 40.6856 18.4619 39.8792 18.8943C39.4725 19.1105 39.0445 19.2839 38.602 19.4117C38.2319 19.5198 37.8553 19.5362 37.4984 19.6115Z" fill="#BB4C51"/>
<path d="M94.4 46.28C92.4533 46.28 90.6933 45.9467 89.12 45.28C87.5733 44.6133 86.3467 43.6533 85.44 42.4C84.5333 41.1467 84.0667 39.6667 84.04 37.96H90.04C90.12 39.1067 90.52 40.0133 91.24 40.68C91.9867 41.3467 93 41.68 94.28 41.68C95.5867 41.68 96.6133 41.3733 97.36 40.76C98.1067 40.12 98.48 39.2933 98.48 38.28C98.48 37.4533 98.2267 36.7733 97.72 36.24C97.2133 35.7067 96.5733 35.2933 95.8 35C95.0533 34.68 94.0133 34.3333 92.68 33.96C90.8667 33.4267 89.3867 32.9067 88.24 32.4C87.12 31.8667 86.1467 31.08 85.32 30.04C84.52 28.9733 84.12 27.56 84.12 25.8C84.12 24.1467 84.5333 22.7067 85.36 21.48C86.1867 20.2533 87.3467 19.32 88.84 18.68C90.3333 18.0133 92.04 17.68 93.96 17.68C96.84 17.68 99.1733 18.3867 100.96 19.8C102.773 21.1867 103.773 23.1333 103.96 25.64H97.8C97.7467 24.68 97.3333 23.8933 96.56 23.28C95.8133 22.64 94.8133 22.32 93.56 22.32C92.4667 22.32 91.5867 22.6 90.92 23.16C90.28 23.72 89.96 24.5333 89.96 25.6C89.96 26.3467 90.2 26.9733 90.68 27.48C91.1867 27.96 91.8 28.36 92.52 28.68C93.2667 28.9733 94.3067 29.32 95.64 29.72C97.4533 30.2533 98.9333 30.7867 100.08 31.32C101.227 31.8533 102.213 32.6533 103.04 33.72C103.867 34.7867 104.28 36.1867 104.28 37.92C104.28 39.4133 103.893 40.8 103.12 42.08C102.347 43.36 101.213 44.3867 99.72 45.16C98.2267 45.9067 96.4533 46.28 94.4 46.28ZM139.855 23.84L133.375 46H127.335L123.295 30.52L119.255 46H113.175L106.655 23.84H112.335L116.255 40.72L120.495 23.84H126.415L130.575 40.68L134.495 23.84H139.855ZM182.274 23.52C184.914 23.52 187.048 24.36 188.674 26.04C190.301 27.6933 191.114 30.0133 191.114 33V46H185.514V33.76C185.514 32 185.074 30.6533 184.194 29.72C183.314 28.76 182.114 28.28 180.594 28.28C179.048 28.28 177.821 28.76 176.914 29.72C176.034 30.6533 175.594 32 175.594 33.76V46H169.994V23.84H175.594V26.6C176.341 25.64 177.288 24.8933 178.434 24.36C179.608 23.8 180.888 23.52 182.274 23.52ZM202.04 41.56H211.24V46H196.44V18.08H202.04V41.56ZM213.359 34.84C213.359 32.6 213.799 30.6133 214.679 28.88C215.586 27.1467 216.799 25.8133 218.319 24.88C219.866 23.9467 221.586 23.48 223.479 23.48C225.132 23.48 226.572 23.8133 227.799 24.48C229.052 25.1467 230.052 25.9867 230.799 27V23.84H236.439V46H230.799V42.76C230.079 43.8 229.079 44.6667 227.799 45.36C226.546 46.0267 225.092 46.36 223.439 46.36C221.572 46.36 219.866 45.88 218.319 44.92C216.799 43.96 215.586 42.6133 214.679 40.88C213.799 39.12 213.359 37.1067 213.359 34.84ZM230.799 34.92C230.799 33.56 230.532 32.4 229.999 31.44C229.466 30.4533 228.746 29.7067 227.839 29.2C226.932 28.6667 225.959 28.4 224.919 28.4C223.879 28.4 222.919 28.6533 222.039 29.16C221.159 29.6667 220.439 30.4133 219.879 31.4C219.346 32.36 219.079 33.5067 219.079 34.84C219.079 36.1733 219.346 37.3467 219.879 38.36C220.439 39.3467 221.159 40.1067 222.039 40.64C222.946 41.1733 223.906 41.44 224.919 41.44C225.959 41.44 226.932 41.1867 227.839 40.68C228.746 40.1467 229.466 39.4 229.999 38.44C230.532 37.4533 230.799 36.28 230.799 34.92ZM247.508 27.08C248.228 26.0133 249.215 25.1467 250.468 24.48C251.748 23.8133 253.202 23.48 254.828 23.48C256.722 23.48 258.428 23.9467 259.948 24.88C261.495 25.8133 262.708 27.1467 263.588 28.88C264.495 30.5867 264.948 32.5733 264.948 34.84C264.948 37.1067 264.495 39.12 263.588 40.88C262.708 42.6133 261.495 43.96 259.948 44.92C258.428 45.88 256.722 46.36 254.828 46.36C253.175 46.36 251.722 46.04 250.468 45.4C249.242 44.7333 248.255 43.88 247.508 42.84V46H241.908V16.4H247.508V27.08ZM259.228 34.84C259.228 33.5067 258.948 32.36 258.388 31.4C257.855 30.4133 257.135 29.6667 256.228 29.16C255.348 28.6533 254.388 28.4 253.348 28.4C252.335 28.4 251.375 28.6667 250.468 29.2C249.588 29.7067 248.868 30.4533 248.308 31.44C247.775 32.4267 247.508 33.5867 247.508 34.92C247.508 36.2533 247.775 37.4133 248.308 38.4C248.868 39.3867 249.588 40.1467 250.468 40.68C251.375 41.1867 252.335 41.44 253.348 41.44C254.388 41.44 255.348 41.1733 256.228 40.64C257.135 40.1067 257.855 39.3467 258.388 38.36C258.948 37.3733 259.228 36.2 259.228 34.84Z" fill="black"/>
<path d="M141.445 34.84C141.445 32.6 141.885 30.6133 142.765 28.88C143.672 27.1467 144.885 25.8133 146.405 24.88C147.952 23.9467 149.672 23.48 151.565 23.48C153.218 23.48 154.658 23.8133 155.885 24.48C157.138 25.1467 158.138 25.9867 158.885 27V23.84H164.525V46H158.885V42.76C158.165 43.8 157.165 44.6667 155.885 45.36C154.632 46.0267 153.178 46.36 151.525 46.36C149.658 46.36 147.952 45.88 146.405 44.92C144.885 43.96 143.672 42.6133 142.765 40.88C141.885 39.12 141.445 37.1067 141.445 34.84ZM158.885 34.92C158.885 33.56 158.618 32.4 158.085 31.44C157.552 30.4533 156.832 29.7067 155.925 29.2C155.018 28.6667 154.045 28.4 153.005 28.4C151.965 28.4 151.005 28.6533 150.125 29.16C149.245 29.6667 148.525 30.4133 147.965 31.4C147.432 32.36 147.165 33.5067 147.165 34.84C147.165 36.1733 147.432 37.3467 147.965 38.36C148.525 39.3467 149.245 40.1067 150.125 40.64C151.032 41.1733 151.992 41.44 153.005 41.44C154.045 41.44 155.018 41.1867 155.925 40.68C156.832 40.1467 157.552 39.4 158.085 38.44C158.618 37.4533 158.885 36.28 158.885 34.92Z" fill="black"/>
</svg>
