<svg width="340" height="340" viewBox="0 0 340 340" fill="none" xmlns="http://www.w3.org/2000/svg">
<rect x="2" y="2" width="336" height="336" rx="38" fill="white"/>
<rect x="2" y="2" width="336" height="336" rx="38" stroke="#D1D7DD" stroke-width="4"/>
<path d="M130.19 165.527C129.573 165.795 128.984 166.121 128.429 166.501L128.251 166.647C128.181 166.692 128.116 166.744 128.056 166.801C116.331 175.921 110.051 190.624 113.394 205.358C115.282 213.808 120.025 221.349 126.823 226.709C133.622 232.07 142.061 234.923 150.718 234.787H152.041C157.716 234.545 163.264 233.022 168.268 230.332C173.272 227.643 177.603 223.857 180.938 219.258C184.272 214.658 186.523 209.365 187.523 203.772C188.523 198.18 188.245 192.434 186.711 186.964C185.21 181.585 182.086 176.627 179.352 171.791C174.548 163.299 169.734 154.809 164.909 146.322C163.481 143.815 162.037 141.324 160.625 138.817C158.767 135.506 155.854 131.904 155.7 127.976C155.546 124.049 158.743 120.26 162.653 119.506C170.021 118.102 173.477 126.086 173.494 126.078C174.388 128.215 176.06 129.934 178.172 130.886C180.285 131.838 182.68 131.953 184.874 131.207C187.068 130.461 188.896 128.91 189.99 126.867C191.085 124.825 191.362 122.443 190.768 120.203C188.964 114.312 185.195 109.218 180.09 105.769C175.601 102.558 170.192 100.887 164.674 101.006C160.817 101.027 157.007 101.852 153.486 103.428C149.966 105.004 146.812 107.296 144.227 110.158C141.289 113.442 139.184 117.383 138.089 121.651C136.995 125.918 136.943 130.387 137.939 134.679C138.336 136.29 138.879 137.863 139.561 139.376C141.501 143.774 144.349 147.782 146.75 151.945C149.698 157.057 152.646 162.171 155.594 167.288C158.542 172.405 161.518 177.544 164.52 182.704C166.954 186.972 169.607 190.705 169.875 195.833C169.988 198.568 169.533 201.297 168.54 203.848C167.547 206.399 166.036 208.717 164.103 210.656C162.17 212.595 159.857 214.113 157.309 215.114C154.761 216.115 152.034 216.579 149.298 216.474C139.805 216.044 132.64 209.01 131.196 199.808C129.387 188.189 138.434 181.812 138.434 181.812C140.34 180.69 141.775 178.916 142.473 176.817C143.172 174.718 143.085 172.437 142.231 170.397C141.376 168.357 139.811 166.696 137.825 165.721C135.84 164.747 133.568 164.525 131.431 165.097C131.022 165.212 130.621 165.353 130.23 165.519" fill="black"/>
<path d="M227.5 197.188C227.502 193.909 227.231 190.636 226.688 187.403C225.844 182.302 224.262 177.352 221.99 172.708C220.627 169.942 218.907 167.175 216.213 165.666C214.864 164.905 213.341 164.509 211.792 164.516C210.244 164.522 208.724 164.932 207.382 165.704C206.04 166.475 204.921 167.583 204.136 168.918C203.352 170.253 202.928 171.769 202.906 173.317C202.833 176.733 204.683 179.808 206.063 182.956C208.355 188.203 209.394 193.912 209.095 199.631C208.797 205.349 207.169 210.919 204.343 215.899C204.169 216.194 204.015 216.5 203.88 216.815C203.305 218.154 203.005 219.594 202.996 221.051C203.056 223.14 203.833 225.145 205.197 226.729C206.56 228.313 208.428 229.379 210.485 229.749C215.523 230.65 219.524 226.868 221.641 222.649C225.534 214.728 227.539 206.014 227.5 197.188Z" fill="black"/>
<path d="M183.108 137.202C182.941 137.233 182.776 137.274 182.613 137.323C182.281 137.416 181.982 137.601 181.751 137.856C181.519 138.112 181.365 138.427 181.306 138.767C181.246 139.106 181.284 139.456 181.415 139.775C181.546 140.094 181.764 140.369 182.045 140.569C186.172 143.69 189.653 147.584 192.293 152.034C193.01 153.256 193.634 154.531 194.159 155.847C194.597 156.983 195.181 158.468 196.658 158.387C197.81 158.33 198.281 157.348 198.597 156.366C200.103 151.261 200.572 145.907 199.977 140.617C199.553 137.736 198.891 134.894 197.997 132.122C197.862 131.451 197.548 130.829 197.088 130.321C196.795 130.055 196.424 129.892 196.031 129.855C195.637 129.819 195.242 129.911 194.906 130.118C194.586 130.377 194.312 130.687 194.094 131.035C192.742 132.854 191.005 134.353 189.007 135.425C187.999 135.96 186.939 136.39 185.842 136.707C184.925 136.974 183.992 137.015 183.108 137.202Z" fill="#BB4C51"/>
</svg>
