<svg width="340" height="340" viewBox="0 0 340 340" fill="none" xmlns="http://www.w3.org/2000/svg">
<rect x="2" y="2" width="336" height="336" rx="38" fill="white"/>
<rect x="2" y="2" width="336" height="336" rx="38" stroke="#D1D7DD" stroke-width="4"/>
<path d="M122.401 164.652C121.664 164.973 120.959 165.363 120.296 165.817L120.082 165.991C119.999 166.045 119.921 166.106 119.85 166.175C105.831 177.08 98.3222 194.659 102.319 212.276C104.576 222.379 110.247 231.395 118.376 237.804C126.505 244.214 136.595 247.625 146.945 247.463H148.527C155.313 247.173 161.946 245.352 167.929 242.137C173.912 238.921 179.091 234.395 183.078 228.895C187.064 223.396 189.756 217.066 190.952 210.38C192.147 203.694 191.815 196.823 189.981 190.283C188.186 183.851 184.451 177.924 181.181 172.142C175.438 161.988 169.682 151.837 163.913 141.689C162.206 138.691 160.479 135.713 158.791 132.715C156.569 128.757 153.086 124.45 152.902 119.754C152.718 115.059 156.54 110.528 161.216 109.626C170.025 107.948 174.158 117.494 174.177 117.484C175.246 120.04 177.246 122.095 179.771 123.233C182.297 124.372 185.161 124.509 187.784 123.617C190.407 122.725 192.593 120.87 193.902 118.428C195.21 115.986 195.542 113.138 194.831 110.461C192.674 103.417 188.168 97.3255 182.064 93.2018C176.697 89.3625 170.23 87.3646 163.632 87.5071C159.02 87.5325 154.464 88.5187 150.255 90.4029C146.046 92.287 142.275 95.0278 139.184 98.4503C135.672 102.376 133.155 107.089 131.846 112.191C130.538 117.294 130.476 122.636 131.666 127.768C132.141 129.695 132.791 131.575 133.606 133.385C135.925 138.643 139.33 143.435 142.201 148.412C145.726 154.524 149.251 160.639 152.776 166.758C156.301 172.876 159.858 179.02 163.447 185.19C166.358 190.293 169.53 194.756 169.85 200.887C169.985 204.157 169.442 207.42 168.254 210.471C167.066 213.521 165.26 216.292 162.949 218.611C160.639 220.929 157.873 222.744 154.826 223.941C151.78 225.138 148.519 225.692 145.248 225.567C133.897 225.053 125.331 216.642 123.604 205.641C121.441 191.748 132.258 184.123 132.258 184.123C134.537 182.782 136.253 180.66 137.088 178.151C137.923 175.641 137.819 172.914 136.798 170.475C135.776 168.036 133.904 166.049 131.53 164.884C129.156 163.719 126.44 163.454 123.885 164.138C123.396 164.276 122.917 164.444 122.449 164.643" fill="black"/>
<path d="M238.749 202.507C238.752 198.587 238.428 194.673 237.779 190.807C236.77 184.709 234.878 178.791 232.162 173.238C230.532 169.93 228.475 166.622 225.255 164.817C223.642 163.908 221.82 163.435 219.969 163.442C218.118 163.45 216.3 163.94 214.695 164.863C213.09 165.786 211.753 167.11 210.815 168.706C209.877 170.302 209.37 172.115 209.344 173.966C209.257 178.05 211.469 181.727 213.118 185.491C215.859 191.765 217.101 198.591 216.744 205.428C216.387 212.265 214.441 218.925 211.061 224.878C210.854 225.232 210.669 225.598 210.508 225.975C209.821 227.575 209.462 229.297 209.451 231.039C209.523 233.537 210.452 235.934 212.083 237.828C213.713 239.721 215.946 240.996 218.405 241.439C224.43 242.516 229.213 237.995 231.745 232.95C236.399 223.479 238.796 213.059 238.749 202.507Z" fill="black"/>
<path d="M185.673 130.785C185.473 130.823 185.276 130.872 185.081 130.93C184.684 131.041 184.327 131.262 184.05 131.568C183.774 131.873 183.589 132.251 183.518 132.656C183.447 133.062 183.492 133.48 183.649 133.861C183.805 134.243 184.066 134.572 184.402 134.811C189.337 138.542 193.498 143.198 196.655 148.519C197.513 149.98 198.259 151.505 198.886 153.079C199.41 154.437 200.109 156.212 201.874 156.115C203.252 156.047 203.815 154.873 204.193 153.699C205.993 147.595 206.553 141.193 205.842 134.869C205.335 131.424 204.543 128.026 203.475 124.712C203.313 123.909 202.938 123.165 202.388 122.558C202.038 122.241 201.595 122.045 201.124 122.002C200.653 121.958 200.181 122.068 199.779 122.316C199.397 122.625 199.069 122.995 198.809 123.412C197.192 125.587 195.115 127.379 192.726 128.66C191.521 129.301 190.253 129.815 188.942 130.193C187.846 130.513 186.73 130.562 185.673 130.785Z" fill="#BB4C51"/>
</svg>
